<?xml version="1.0" encoding="UTF-8"?>
<!DOCTYPE svg PUBLIC "-//W3C//DTD SVG 1.1//EN" "http://www.w3.org/Graphics/SVG/1.1/DTD/svg11.dtd">
<!-- Creator: CorelDRAW X8 -->
<svg xmlns="http://www.w3.org/2000/svg" xml:space="preserve" width="14.0758cm" height="13.5412cm" version="1.1" style="shape-rendering:geometricPrecision; text-rendering:geometricPrecision; image-rendering:optimizeQuality; fill-rule:evenodd; clip-rule:evenodd"
viewBox="0 0 53651 51613"
 xmlns:xlink="http://www.w3.org/1999/xlink">
 <defs>
  <style type="text/css">
   <![CDATA[
    .fil19 {fill:black}
    .fil28 {fill:#050403}
    .fil14 {fill:#0A0503}
    .fil8 {fill:#0C0905}
    .fil0 {fill:#120C06}
    .fil37 {fill:#15110A}
    .fil29 {fill:#434343}
    .fil26 {fill:#472B12}
    .fil6 {fill:#4C381E}
    .fil30 {fill:#4C3B22}
    .fil7 {fill:#523E21}
    .fil24 {fill:#533E22}
    .fil16 {fill:#543F22}
    .fil11 {fill:#554123}
    .fil20 {fill:#594324}
    .fil32 {fill:#5D4626}
    .fil33 {fill:#6A5A4C}
    .fil35 {fill:#747475}
    .fil17 {fill:#AA6626}
    .fil13 {fill:#AB6926}
    .fil9 {fill:#AC6626}
    .fil12 {fill:#AE6926}
    .fil2 {fill:#B16926}
    .fil3 {fill:#B46C29}
    .fil27 {fill:#C3752B}
    .fil22 {fill:#C7872F}
    .fil15 {fill:#E3AE3A}
    .fil25 {fill:#E5B13A}
    .fil5 {fill:#EAB43C}
    .fil10 {fill:#EAC2A2}
    .fil4 {fill:#EDB83D}
    .fil21 {fill:#EDC4A4}
    .fil34 {fill:#F0EEEE}
    .fil1 {fill:#F3C13F}
    .fil23 {fill:#F4F2F2}
    .fil36 {fill:#F6C340}
    .fil31 {fill:#FDDAB7}
    .fil18 {fill:#FDFDFD}
    .fil38 {fill:black;fill-rule:nonzero}
   ]]>
  </style>
 </defs>
 <g id="Capa_x0020_1">
  <metadata id="CorelCorpID_0Corel-Layer"/>
  <g id="_1288701142944">
   <g>
    <path class="fil0" d="M25618 16916c-255,-343 -175,-219 -520,-468 -341,-247 -217,-208 -656,-325 116,166 -14,47 203,235 33,29 238,177 312,229 297,209 295,213 661,329z"/>
    <path class="fil0" d="M8741 28635c241,433 232,484 589,715 -253,-350 -298,-523 -589,-715z"/>
    <path class="fil0" d="M20056 15034c41,72 -91,173 156,38 256,-140 126,-66 245,-281l-401 243z"/>
    <path class="fil0" d="M11168 30940c-22,-25 -53,-102 -65,-77 -12,25 -55,-58 -72,-68 -235,-137 -32,-47 -285,-122 20,24 46,34 57,72 12,39 51,57 67,66 209,122 63,57 298,129z"/>
   </g>
   <g>
    <path class="fil1" d="M21647 18433c-73,-495 -51,-365 -327,-755 -215,-303 -168,-380 -475,-534 -476,75 -272,57 -433,252 1498,629 624,1508 1235,1037z"/>
    <path class="fil1" d="M48703 680l-161 261 390 83c337,-265 376,-154 365,-701l-594 357z"/>
   </g>
   <g>
    <path class="fil2" d="M23237 23942c-69,-410 -178,-492 -440,-733l-1636 -81c510,510 1375,651 2076,814z"/>
    <path class="fil2" d="M20523 22222l1374 57c-293,-339 -267,-413 -517,-706 -604,-3 -710,44 -857,649z"/>
   </g>
   <g>
    <path class="fil3" d="M13514 21278l10 486 148 -20 668 7c-55,442 -95,547 -296,879 4,460 36,298 343,466 43,-355 -10,-76 163,-345l103 -136c14,-24 41,-85 48,-129 -364,-1003 -210,-218 -426,-1381 -147,-786 -4,-282 -227,-542l-5 913 -529 -198z"/>
    <polygon class="fil3" points="23388,24269 22614,24334 23904,24707 "/>
   </g>
   <g>
    <path class="fil4" d="M16404 14111l842 106c66,-555 -85,-647 395,-755 521,-118 612,142 733,518 229,-220 170,354 161,-250 0,-25 -83,-270 -119,-349l827 -8 -21 -448c-460,-646 -2613,910 -2818,1186z"/>
    <path class="fil4" d="M45509 740l-196 -95 -544 -165c-6,4 -216,-257 6,313 166,428 726,857 1213,973 136,-672 -144,-546 -479,-1026z"/>
    <path class="fil4" d="M17448 20669l-362 10c-94,51 -1318,115 -647,662 136,111 380,145 503,193l506 -865z"/>
    <path class="fil4" d="M14422 21206c8,183 -33,170 41,348 251,611 159,263 350,415 264,-615 312,-531 -176,-867 -39,22 -131,50 -215,104z"/>
    <path class="fil4" d="M14044 22630c201,-332 241,-437 296,-879l-668 -7 372 886z"/>
   </g>
   <g>
    <path class="fil5" d="M18597 20459l-1063 202 -21 371c917,-231 260,-161 550,45 -376,224 -332,165 -417,571l708 -186c-18,-429 -524,-197 317,-327 486,-75 763,-112 998,-453 -165,-118 -266,-78 -455,-367 -307,32 -395,37 -617,144z"/>
    <path class="fil5" d="M18691 18599c572,192 548,295 1209,384 200,-221 248,-136 332,-215 328,-306 57,177 278,-445 -725,-133 -794,-517 -1535,-420 -214,324 -289,283 -284,696z"/>
    <path class="fil5" d="M16685 19637l1050 -151c-229,-410 30,-45 -345,-308 -314,-220 -25,78 -330,-258 581,78 552,200 893,-251 -158,-404 -241,-365 -607,-550 -30,19 -67,49 -84,64l-954 1282c601,55 251,38 377,172z"/>
    <path class="fil5" d="M18975 17903c-206,-311 -208,-238 -404,-435 -178,-179 -256,-314 -351,-439 -447,237 -654,480 -796,958l592 359c170,-194 386,-397 596,-559l-337 570c788,-216 -29,1 536,-368 22,-14 66,-35 84,-46 16,-10 52,-30 80,-40z"/>
    <path class="fil5" d="M17779 19765c-757,-23 -1551,389 -2181,-2 -17,-11 -57,-28 -69,-69 -12,-42 -43,-51 -102,-94l76 451c248,-65 28,-30 324,-5 1140,95 424,90 1790,-49 940,-214 654,542 1434,-405l-1033 -255c-174,769 -48,125 -239,428z"/>
    <path class="fil5" d="M19477 17615c25,21 63,22 76,63l1578 817c-333,-799 -98,-454 -729,-853 -433,-274 -497,-439 -925,-27z"/>
    <path class="fil5" d="M19495 16807c-164,-115 -180,-128 -327,-281 -397,62 -79,-59 -512,124l-421 292 596 471c394,-351 364,82 664,-606z"/>
    <path class="fil5" d="M16889 21817c-246,-287 129,-19 -207,-191 -62,-31 -388,-136 -441,-140 -1336,-113 61,1415 648,331z"/>
    <path class="fil5" d="M19231 19418l340 -90c-272,-447 155,-109 -439,-435 -293,-161 -122,36 -435,-244 -318,136 -228,36 -391,310 153,443 493,508 925,459z"/>
    <path class="fil5" d="M19743 14574c-190,171 -169,193 -283,517 304,128 244,200 244,-114 295,242 -51,178 352,57l401 -243 93 -155c454,-487 213,-74 516,-601l-297 -113c-332,274 -554,509 -639,968 -421,-314 -240,197 -387,-316z"/>
    <path class="fil5" d="M19495 16807l514 22 325 -364c-82,-151 -46,-117 -221,-352 -427,-79 -251,-87 -874,194l256 500z"/>
    <path class="fil5" d="M14969 22476c26,9 66,0 76,32 17,53 128,60 160,73 341,137 -180,35 422,135 309,-145 259,-135 407,-329 -190,-286 -305,-350 -634,-306 -483,63 -276,-82 -587,-112 189,408 68,42 156,507z"/>
    <path class="fil5" d="M15595 20841c-31,-12 -77,-70 -91,-43l-474 -219c-335,490 -87,737 304,907 286,-240 300,-169 261,-645z"/>
    <path class="fil5" d="M19214 20315c530,19 98,27 477,92 550,95 153,135 539,-41 -217,-515 230,-163 -625,-473l-391 422z"/>
    <path class="fil5" d="M16082 22834l627 30 230 -333c-1095,-34 -903,-65 -857,303z"/>
    <path class="fil5" d="M16753 22260c582,64 566,-19 862,-389l-404 -93c-213,171 -287,240 -458,482z"/>
   </g>
   <g>
    <path class="fil6" d="M16404 14111c-211,-21 -159,-63 -124,155 961,357 735,277 1426,672l-209 -688 520 -234 -485 -166c-7,-1 -35,7 -51,0l363 -236c233,196 308,220 370,686 64,487 -27,528 -190,760l509 270c-102,-422 -144,-226 23,-508l630 -16c171,-638 -26,8 283,-450 26,-39 104,-103 152,-265 121,-405 32,-106 34,-398 -454,256 -6,195 -687,138 -69,262 -19,198 -141,418 -205,373 -178,214 -280,307l-173 -576c-121,-376 -212,-636 -733,-518 -480,108 -329,200 -395,755l-842 -106z"/>
    <path class="fil6" d="M44507 995l261 66 24 284c153,195 149,232 353,437l438 369c654,-152 1038,-566 623,-1157 -23,-32 -106,-114 -132,-143l-222 -227c-36,27 -162,97 -186,108 -237,104 48,38 -157,8 335,480 615,354 479,1026 -487,-116 -1047,-545 -1213,-973 -222,-570 -12,-309 -6,-313l544 165 0 -107c-172,-229 -484,-624 -765,-486 -351,173 -106,610 -41,943z"/>
    <path class="fil6" d="M48149 941c96,157 -65,48 160,228 193,154 45,44 232,115 477,-135 251,-103 391,-260l-390 -83 161 -261 -162 -14 -248 6 -144 269z"/>
   </g>
   <g>
    <path class="fil7" d="M8799 27282c682,-446 2366,-263 3239,-318 13,-141 54,-327 25,-472 -79,-394 41,-146 -230,-332l11 396c-666,-476 -3331,127 -3952,303 356,400 435,306 907,423z"/>
    <path class="fil7" d="M32505 31442c-269,1084 1443,2191 2595,1508 -509,70 -745,91 -1176,-178 -875,-548 -704,-706 -298,-1000 271,-195 173,-67 325,-288l-91 -210c-443,246 -743,193 -1355,168z"/>
    <path class="fil7" d="M13886 27364c462,-921 -596,-855 -1246,-954l-223 -179c-178,292 -140,167 -112,727 820,137 1324,-4 1581,406z"/>
   </g>
   <g>
    <path class="fil8" d="M14764 20264l969 190c391,-266 548,-153 1079,-183 38,-2 459,-45 467,-47 503,-144 176,-68 338,-227 -1366,139 -650,144 -1790,49 -296,-25 -76,-60 -324,5l-76 -451c59,43 90,52 102,94 12,41 52,58 69,69 630,391 1424,-21 2181,2l-44 -279 -1050 151 -757 55c-82,-384 63,-544 297,-901 196,-299 375,-561 460,-898l-391 421c-414,663 -476,980 -1234,1384 -196,-125 -509,-305 -739,-408 -494,-219 -714,-221 -1026,-62 382,185 717,182 1262,499 162,94 41,14 169,104 119,83 184,153 241,204l-203 229z"/>
    <path class="fil8" d="M12068 23639c330,-186 -34,290 340,-334 89,-149 147,-306 223,-449 203,-378 381,-549 547,-941 -502,253 -978,1202 -1110,1724z"/>
    <path class="fil8" d="M8741 28635l-567 -780c159,480 -41,90 232,451 24,31 97,117 122,143 145,155 113,111 213,186z"/>
   </g>
   <g>
    <path class="fil9" d="M2512 31809c33,727 -224,597 143,1213l1861 -190c-274,-907 -698,-1020 -988,-1674 -425,460 -287,581 -1016,651z"/>
    <path class="fil9" d="M18374 13980l173 576c102,-93 75,66 280,-307 122,-220 72,-156 141,-418 681,57 233,118 687,-138l-433 -768 21 448 -827 8c36,79 119,324 119,349 9,604 68,30 -161,250z"/>
    <path class="fil9" d="M19743 14574c147,513 -34,2 387,316 85,-459 307,-694 639,-968l-661 -299 -365 951z"/>
   </g>
   <g>
    <path class="fil10" d="M16648 15052c-207,633 317,99 -153,752l-535 -383 688 -369zm1385 -409l-337 -408c439,150 234,-120 337,408zm-1753 -377c-623,204 -722,529 -867,1146 505,312 370,12 579,442l86 281 214 571c974,-377 518,397 1739,-421 712,-476 912,-380 1217,-1359 208,-82 16,-59 -62,-120l-630 16c-167,282 -125,86 -23,508l-509 -270c163,-232 254,-273 190,-760 -62,-466 -137,-490 -370,-686l-363 236c16,7 44,-1 51,0l485 166 -520 234 209 688c-691,-395 -465,-315 -1426,-672z"/>
    <path class="fil10" d="M13178 21915c-166,392 -344,563 -547,941 -76,143 -134,300 -223,449 -374,624 -10,148 -340,334l18 148 -53 656 -321 -488c-572,440 -569,94 -859,786 155,249 -35,84 273,314 433,321 1043,274 1403,-152 407,-482 637,-1050 1453,-1185 37,-37 233,-272 298,-321 -236,-413 -573,-913 -749,-1598 -97,42 -331,107 -353,116z"/>
   </g>
   <g>
    <path class="fil11" d="M17491 11828c-244,441 -3502,2699 -2976,4584l903 -138c598,-420 42,-251 581,-206l79 67 -86 -281 -974 -470c211,-970 1122,-1484 1849,-2005 1903,-1361 1931,-687 2671,-1008 181,-566 217,-623 115,-1225 -977,-211 -1430,389 -2162,682z"/>
    <path class="fil11" d="M24862 26099c639,-270 1348,806 3239,847 -200,-327 270,-83 -905,-493 -554,-194 -1560,-513 -1978,-843 -371,-294 -392,-469 -901,-586 -762,315 -3043,-1374 -4282,-1506l0 157c889,291 3742,1949 3942,1963 233,16 103,17 262,-64 49,-25 147,-67 174,-153 17,-56 56,-65 85,-96 108,744 175,621 364,774z"/>
    <path class="fil11" d="M31623 30102c-833,-105 -951,33 -1866,-194 349,1670 564,1472 2215,1392 92,-610 -94,-879 -349,-1198z"/>
    <path class="fil11" d="M2655 33022c-367,-616 -110,-486 -143,-1213 -272,120 -605,-24 -1074,-91 62,369 163,620 352,905 256,386 202,335 865,399z"/>
    <path class="fil11" d="M15899 25648c-62,-60 -60,-89 -217,-184 -616,-375 -744,-93 -1023,-599l-132 256c320,208 320,296 576,513 275,233 438,291 686,530 25,-64 15,-73 35,-197l21 -156c4,-17 20,-66 24,-81 4,-14 18,-55 30,-82z"/>
   </g>
   <g>
    <path class="fil12" d="M16753 22260c171,-242 245,-311 458,-482l404 93c-296,370 -280,453 -862,389zm136 -443c-587,1084 -1984,-444 -648,-331 53,4 379,109 441,140 336,172 -39,-96 207,191zm-1294 -976c39,476 25,405 -261,645 -391,-170 -639,-417 -304,-907l474 219c14,-27 60,31 91,43zm3102 -2192c313,280 142,83 435,244 594,326 167,-12 439,435l-340 90c19,41 91,169 111,197 16,22 44,64 60,85 20,27 170,162 203,193 855,310 408,-42 625,473 -386,176 11,136 -539,41 -379,-65 53,-73 -477,-92 189,289 290,249 455,367 -235,341 -512,378 -998,453 -841,130 -335,-102 -317,327l-708 186c85,-406 41,-347 417,-571 -290,-206 367,-276 -550,-45l21 -371 -86 8 -506 865c-123,-48 -367,-82 -503,-193 -671,-547 553,-611 647,-662l-1322 -83 159 220 -328 25c-93,-387 -105,-116 83,-238l55 -149 -969 -190 -236 283c-11,28 -21,65 -31,96 -9,31 -69,529 -75,563 84,-54 176,-82 215,-104 488,336 440,252 176,867 311,30 104,175 587,112 329,-44 444,20 634,306 -148,194 -98,184 -407,329l455 118c-46,-368 -238,-337 857,-303l-230 333c1340,-218 2151,-1637 3705,-2079 -179,374 -434,385 -703,533l-551 385c-178,174 -75,47 -183,214 754,304 1114,-200 1328,-397 673,-619 1110,-663 1347,-2178 -1365,-556 779,368 -1032,-29 -32,600 -108,626 -745,576 -167,-199 -460,299 -34,-334 -299,-229 196,-192 -343,-193 407,-488 -516,-441 402,-379 -661,-89 -637,-192 -1209,-384l6 50z"/>
    <path class="fil12" d="M12758 27674l-296 720c-1,0 1,-17 7,-22l-145 2982c498,162 1406,130 1947,-80 -156,-1177 -212,-1927 -167,-3127 -84,-958 -403,-529 -1346,-473z"/>
    <path class="fil12" d="M33951 31484c-152,221 -54,93 -325,288 -406,294 -577,452 298,1000 431,269 667,248 1176,178 159,-502 -511,-1251 -873,-1559 -229,31 -119,-28 -276,93z"/>
   </g>
   <g>
    <path class="fil13" d="M19553 17678c-13,-41 -51,-42 -76,-63 428,-412 492,-247 925,27 631,399 396,54 729,853l-1578 -817zm-578 225c-28,10 -64,30 -80,40 -18,11 -62,32 -84,46 -565,369 252,152 -536,368l337 -570c-210,162 -426,365 -596,559l-592 -359c142,-478 349,-721 796,-958 95,125 173,260 351,439 196,197 198,124 404,435zm520 -1096c-300,688 -270,255 -664,606l-596 -471 421 -292c433,-183 115,-62 512,-124 147,153 163,166 327,281zm-2810 1086c-85,337 -264,599 -460,898 -234,357 -379,517 -297,901l757 -55c-126,-134 224,-117 -377,-172l954 -1282c17,-15 54,-45 84,-64 366,185 449,146 607,550 -341,451 -312,329 -893,251 305,336 16,38 330,258 375,263 116,-102 345,308l44 279c191,-303 65,341 239,-428l1033 255c-780,947 -494,191 -1434,405 -162,159 165,83 -338,227 -8,2 -429,45 -467,47 -531,30 -688,-83 -1079,183 1923,206 2444,-321 2864,5 222,-107 310,-112 617,-144l391 -422c-33,-31 -183,-166 -203,-193 -16,-21 -44,-63 -60,-85 -20,-28 -92,-156 -111,-197 -432,49 -772,-16 -925,-459 163,-274 73,-174 391,-310l-6 -50c-5,-413 70,-372 284,-696 741,-97 810,287 1535,420 -221,622 50,139 -278,445 -84,79 -132,-6 -332,215 -918,-62 5,-109 -402,379 539,1 44,-36 343,193 702,-631 1026,-815 1721,-797l62 435 23 -760c-611,471 263,-408 -1235,-1037 161,-195 -43,-177 433,-252l-511 -679 -325 364 -514 -22 -256 -500c623,-281 447,-273 874,-194 -233,-346 -279,-366 -616,-634l-1619 1055c-857,730 -757,1027 -1193,1359z"/>
    <path class="fil13" d="M11554 34861c789,1 1863,27 2280,-471 420,-566 395,-2018 357,-2816l-1801 -22 -253 171c-39,31 -61,44 -67,97l-142 2858c-65,-823 -38,-2122 -98,-3116 -404,855 -143,2378 -276,3299z"/>
   </g>
   <g>
    <path class="fil14" d="M17273 23200c109,-553 120,-222 628,-593 414,-302 332,-448 793,-315 -124,465 -937,904 -1421,908zm-1195 -7065l-79 -67 145 871c1478,-250 682,213 541,954 436,-332 336,-629 1193,-1359l1619 -1055c337,268 383,288 616,634 175,235 139,201 221,352l511 679c307,154 260,231 475,534 276,390 254,260 327,755l-23 760 28 149c-237,1515 -674,1559 -1347,2178 -214,197 -574,701 -1328,397 108,-167 5,-40 183,-214l551 -385c269,-148 524,-159 703,-533 -1554,442 -2365,1861 -3705,2079l-627 -30 -455 -118c-602,-100 -81,2 -422,-135 -32,-13 -143,-20 -160,-73 -10,-32 -50,-23 -76,-32 149,374 129,255 825,702l-1407 -82c-307,-168 -339,-6 -343,-466l-372 -886 -148 20 -10 -486 -22 -79 -314 716c22,-9 256,-74 353,-116 176,685 513,1185 749,1598 -65,49 -261,284 -298,321l183 43c1078,-646 4825,-143 6097,207 465,128 749,358 1153,598 374,221 739,345 1162,588 977,562 1126,1309 2029,1547 -96,-100 -277,-375 -393,-558 343,171 511,260 617,615l-312 192c-491,33 -732,42 -1217,109 -437,60 -540,-87 -884,-184 -593,-409 -373,-131 -966,-335l-5058 -1620c-331,-56 -257,-133 -257,189 1154,273 2761,823 3934,1205 2659,866 2076,1007 3470,1723 -151,-318 -127,-172 -227,-382l-89 -292c568,-177 1508,-441 1922,31 -127,-400 -124,-427 -1,-631 663,355 2180,1402 3156,986 35,-296 70,-79 -113,-288 -947,669 -2939,-795 -3326,-1362 -189,-153 -256,-30 -364,-774 -29,31 -68,40 -85,96 -27,86 -125,128 -174,153 -159,81 -29,80 -262,64 -200,-14 -3053,-1672 -3942,-1963 -786,-89 -1205,-278 -2151,-278 226,-310 515,-547 1075,-555 753,-10 821,223 1076,676 1239,132 3520,1821 4282,1506 -139,-220 -183,-255 -277,-598l1183 264c-368,-158 -1252,-318 -1567,-612 -424,-396 -169,-415 -403,-795l-120 -152c-178,-202 -273,-144 -374,-367 649,-35 1794,-76 2302,-476 -1349,-32 -2236,518 -3070,-306l35 464 -1974 59c607,430 1478,93 2269,85 28,33 58,78 78,105l398 514c262,241 371,323 440,733l151 327 516 438 -1290 -373 -2551 -1279 725 -11c-718,-424 -1418,-313 -1911,-758 744,-300 894,294 1982,-886l129 -139c19,-21 49,-48 68,-69 391,-433 390,-661 496,-754 813,-2067 412,-2545 -1142,-4280 -362,-405 -471,-399 -824,-610l-233 -148c-50,-34 -85,-68 -127,-98 -44,-32 -95,-64 -132,-107 356,-1 49,44 228,-238l-74 -31c-305,979 -505,883 -1217,1359 -1221,818 -765,44 -1739,421l-214 -571z"/>
    <path class="fil14" d="M15418 16274l-903 138c-526,-1885 2732,-4143 2976,-4584 -798,284 -463,335 -1446,1123 -580,464 -590,779 -874,998 -224,173 -85,93 -438,190 -496,-1814 -539,-1263 28,-2349 -1297,1067 -29,1748 -140,2844 -46,461 -532,911 -350,1612 163,630 832,447 1147,28z"/>
    <path class="fil14" d="M51116 9816c381,-291 146,-270 501,0 -70,118 106,210 -252,230 -337,18 -199,-144 -249,-230zm853 201c44,-482 -229,-622 -843,-552 -604,786 253,1095 843,552z"/>
    <path class="fil14" d="M15960 15421l535 383c470,-653 -54,-119 153,-752l-688 369z"/>
    <path class="fil14" d="M18033 14643c-103,-528 102,-258 -337,-408l337 408z"/>
   </g>
   <g>
    <path class="fil15" d="M11168 30940c-235,-72 -89,-7 -298,-129 -16,-9 -55,-27 -67,-66 -11,-38 -37,-48 -57,-72 253,75 50,-15 285,122 17,10 60,93 72,68 12,-25 43,52 65,77zm-422 -267c-504,-240 -397,-224 -568,-483l568 483zm-2005 -2038c291,192 336,365 589,715 -357,-231 -348,-282 -589,-715zm-567 -780l567 780c-100,-75 -68,-31 -213,-186 -25,-26 -98,-112 -122,-143 -273,-361 -73,29 -232,-451zm0 0c-243,101 -274,-303 -61,1291l622 4604 30 135 110 656c1050,368 1556,314 2679,320 133,-921 -128,-2444 276,-3299 60,994 33,2293 98,3116l142 -2858c6,-53 28,-66 67,-97l253 -171 -1222 -612 1156 414 145 -2982c-6,5 -8,22 -7,22l296 -720c-2098,214 -2927,-101 -4770,-388 92,339 79,294 186,569z"/>
    <path class="fil15" d="M14387 23096l1407 82c-696,-447 -676,-328 -825,-702l-268 10c-7,44 -34,105 -48,129l-103 136c-173,269 -120,-10 -163,345z"/>
   </g>
   <g>
    <path class="fil16" d="M14161 27469c61,436 2914,6078 3275,6550 -1665,1093 -3895,-266 -3809,1973 1533,499 1886,780 3820,400 1567,-309 551,386 1909,230 611,-70 1213,-298 1582,-624 -42,-862 -562,-2279 -987,-2964 -1803,-2902 -1263,-5239 -2841,-5286 -124,-3 -303,-5 -436,-11l-2513 -268z"/>
    <path class="fil16" d="M25320 32181c-649,541 -942,397 -1441,705 -552,341 -543,1179 147,1458 568,230 1286,236 1884,59 785,-232 931,-397 1101,-1200 2178,-61 1355,-1862 419,-2782 -2330,620 -2259,623 -4640,-113 -790,-245 -3633,-1261 -4195,-1225 -285,1173 623,1106 1163,1172l4387 733c923,178 1250,195 1175,1193z"/>
    <path class="fil16" d="M27701 29766c-3286,1038 -6048,-1647 -8712,-2493 21,37 53,80 72,105l415 416c-1101,-430 -2574,-1468 -3577,-2146 230,414 535,759 973,1179 208,199 317,341 552,528 335,266 211,104 572,502 683,749 1402,1183 2765,1527 1668,421 5749,2297 6940,382z"/>
    <path class="fil16" d="M14727 27264c485,329 1710,180 2387,212 -359,-903 -1061,-647 -2619,-1220l530 -94c-220,-203 -451,-377 -799,-461 37,369 -28,316 186,633 324,480 326,308 440,423 -290,485 -131,-291 -200,223 -78,572 103,-242 75,284z"/>
    <path class="fil16" d="M28188 27461c-732,-368 -1898,-434 -2893,-1120 -23,-17 -51,-46 -75,-62l-358 -180c387,567 2379,2031 3326,1362z"/>
   </g>
   <g>
    <path class="fil17" d="M20457 14791c-119,215 11,141 -245,281 -247,135 -115,34 -156,-38 -403,121 -57,185 -352,-57 0,314 60,242 -244,114l-138 -134c-179,282 128,237 -228,238 37,43 88,75 132,107 42,30 77,64 127,98l233 148c353,211 462,205 824,610 1554,1735 1955,2213 1142,4280 465,-139 62,319 449,-354l266 -1636c273,933 -161,1888 -688,2591 139,431 254,503 412,943 834,824 1721,274 3070,306 -508,400 -1653,441 -2302,476 101,223 196,165 374,367l120 152c234,380 -21,399 403,795 315,294 1199,454 1567,612l-1183 -264c94,343 138,378 277,598 509,117 530,292 901,586 418,330 1424,649 1978,843 1175,410 705,166 905,493 -1891,-41 -2600,-1117 -3239,-847l358 180c24,16 52,45 75,62 995,686 2161,752 2893,1120 183,209 148,-8 113,288 -976,416 -2493,-631 -3156,-986 -123,204 -126,231 1,631 -414,-472 -1354,-208 -1922,-31l89 292c100,210 76,64 227,382 -1394,-716 -811,-857 -3470,-1723 -1173,-382 -2780,-932 -3934,-1205 -270,-273 -1034,-447 -1477,-244 279,506 407,224 1023,599 157,95 155,124 217,184 1003,678 2476,1716 3577,2146l-415 -416c-19,-25 -51,-68 -72,-105 2664,846 5426,3531 8712,2493 409,-158 672,-607 760,-1161l202 -1980c205,-2550 -685,-4546 -1623,-6726l-1317 -2883c123,-275 161,-244 -105,-100 -366,-116 -364,-120 -661,-329 -74,-52 -279,-200 -312,-229 -217,-188 -87,-69 -203,-235 -892,-376 -1338,-1340 -2928,-1965 -31,24 -77,20 -93,71 -150,470 147,-49 -437,304 -271,164 -266,165 -527,258z"/>
    <path class="fil17" d="M14165 23761l-663 646c-330,522 270,1003 550,1997 222,789 9,847 675,860 28,-526 -153,288 -75,-284 69,-514 -90,262 200,-223 -114,-115 -116,57 -440,-423 -214,-317 -149,-264 -186,-633 -322,-816 -163,-17 39,-753 97,-354 -71,-87 123,-349 1095,-49 1174,184 2005,321l5058 1620c587,16 111,-342 -329,-791 1239,415 -37,458 1217,682l78 444c344,97 447,244 884,184 485,-67 726,-76 1217,-109l88 -249c-903,-238 -1052,-985 -2029,-1547 -423,-243 -788,-367 -1162,-588 -404,-240 -688,-470 -1153,-598 -1272,-350 -5019,-853 -6097,-207z"/>
    <path class="fil17" d="M14960 11597c-556,-144 -134,50 -199,193 -567,1086 -524,535 -28,2349 353,-97 214,-17 438,-190 284,-219 294,-534 874,-998 983,-788 648,-839 1446,-1123l347 -598c-1098,-480 -1677,-253 -2644,251l-234 116z"/>
   </g>
   <g>
    <path class="fil18" d="M12068 23639c132,-522 608,-1471 1110,-1724l314 -716c288,-476 204,-141 448,-776l824 -159 203 -229c-57,-51 -122,-121 -241,-204 -128,-90 -7,-10 -169,-104 -545,-317 -880,-314 -1262,-499 312,-159 532,-157 1026,62 230,103 543,283 739,408 758,-404 820,-721 1234,-1384l391 -421c141,-741 937,-1204 -541,-954l-145 -871c-539,-45 17,-214 -581,206 -315,419 -984,602 -1147,-28 -182,-701 304,-1151 350,-1612 111,-1096 -1157,-1777 140,-2844 65,-143 -357,-337 199,-193l34 -168c-725,0 -856,136 -1413,136 -544,0 -893,-136 -1655,-136 -462,1155 -1428,529 -2111,1480 -742,1032 224,2044 -1218,2411 -2442,621 -211,2476 -4951,2449 -408,1247 -1019,1685 -1578,2453 -1081,1484 -619,5379 -621,7343 -1,1488 -33,2550 155,4010 879,196 754,276 1481,-130 64,-1053 -453,-1087 -518,-1998 -48,-686 63,-1839 103,-2552 201,-3639 952,-3195 2759,-5331 1070,-1264 1294,-2737 3004,-3715l239 -165c549,-432 -216,-217 632,-389 -25,27 -59,35 -70,86 -12,50 -54,67 -69,85l-565 533c-235,177 -562,391 -788,567 -355,277 -871,1003 -1198,1493 -567,850 -726,1705 463,2474 729,472 -86,-60 410,-167 396,733 50,1087 717,1453 652,-630 -5,-955 673,-1482l-108 751c909,242 1618,150 2528,-6l275 -675c143,1483 71,1154 498,1232z"/>
    <path class="fil18" d="M34914 17675c217,-423 199,-279 386,-516 -93,955 -87,379 -386,516zm-5063 -6196c-503,634 -215,1096 -1162,1345 -1911,502 -1802,-661 -3273,1838 -313,533 -997,1072 -974,1461 439,117 315,78 656,325 345,249 265,125 520,468 266,-144 228,-175 105,100 1090,784 1334,3099 2245,4272 1010,-323 1778,-954 2481,-1325 -133,-1289 -38,-2551 -73,-3842 101,114 78,9 172,242 288,710 -178,1706 34,3081 158,1023 565,1942 763,2998 301,1611 126,5633 15,7274 393,476 498,254 709,741 209,482 -23,738 436,985 612,25 912,78 1355,-168l-577 -956c-1074,-1451 -117,-4748 255,-6451 412,-1886 -229,-2876 703,-5092l673 -1100c-49,372 -722,1534 -899,2386 1127,-84 2063,-181 3027,-630 759,-352 1735,-1039 1927,-1639 -1270,-87 -1102,1122 -2175,563 -336,-175 -532,-629 -496,-1000 124,-1252 910,387 266,-2405 -220,-958 -984,-1383 -1308,-2203 -243,-616 -103,-906 -296,-1351 -539,-182 -4255,-39 -5109,83z"/>
    <path class="fil18" d="M29698 20671c130,1088 485,2925 385,3936 0,1440 -384,2024 -658,3235 -174,773 89,674 331,1292 329,838 280,830 1363,759 32,-683 155,-424 -61,-1106 -775,-2456 1328,-3337 -536,-8590 -389,154 -461,296 -824,474z"/>
    <path class="fil18" d="M5156 22590c9,30 19,49 25,91 6,40 23,72 31,84 138,204 40,79 167,181 705,791 1671,3420 1907,4318 209,789 39,1295 606,1509 -61,-292 -214,-1061 -244,-1369 -93,-964 146,-531 628,-1009 -165,-372 -369,-826 -478,-1257 -148,-587 -48,-1103 -211,-1667 -237,-821 -418,-162 -1361,-1453l-510 -529c-233,368 -288,411 -647,650l87 451z"/>
    <path class="fil18" d="M11833 26160c271,186 151,-62 230,332 29,145 -12,331 -25,472 -873,55 -2557,-128 -3239,318 852,83 1584,176 2496,181 865,5 1782,-150 2591,-99 -257,-410 -761,-269 -1581,-406 -28,-560 -66,-435 112,-727l-68 -145 22 -714 -404 48 -134 740z"/>
    <path class="fil18" d="M42625 11429l139 135 241 815c371,-169 159,-20 488,-353 245,-247 190,-169 343,-462 -2,-190 -44,-135 159,-135l11 -269c-648,13 -832,264 -1381,0l0 269z"/>
   </g>
   <g>
    <path class="fil19" d="M20707 34288l0 -269 1210 0c-311,425 -487,269 -1210,269zm-1496 2824l-597 0c-1377,-57 -3879,-408 -4633,-400 -1399,13 -583,-271 -1871,-281 -356,-3 -725,8 -1084,8 389,-531 1365,-537 2286,-537 -345,-470 -742,-269 -2017,-269 -55,-157 -2,-35 0,-135 2,-99 55,22 0,-134l-3093 0c-171,-28 -210,-262 -787,-278 -390,-12 -832,9 -1230,9 166,-622 540,-496 1267,-616 1014,-166 935,-132 1313,-594l110 656c1050,368 1556,314 2679,320 789,1 1863,27 2280,-471 420,-566 395,-2018 357,-2816l-1801 -22 -1222 -612 1156 414c498,162 1406,130 1947,-80 220,-306 -62,371 171,-280 223,-622 386,-2152 -338,-2847 -84,-958 -403,-529 -1346,-473 -2098,214 -2927,-101 -4770,-388 92,339 79,294 186,569 -243,101 -274,-303 -61,1291l622 4604c-639,0 -762,-119 -1208,-117 -623,3 -239,133 -990,44 -791,-94 -1713,-102 -2392,-179 -583,-67 -945,71 -1222,78 -1040,27 458,-76 -641,-223 -710,-94 -1545,-141 -2282,-141l0 -269c2105,0 1396,-140 1176,-892 -136,-467 122,-488 136,-986 6,-232 -150,-686 -177,-989l176 -9867c-303,-2145 391,-2621 442,-4473 24,-884 -45,-1918 92,-2596 158,-783 239,-1346 368,-2187 153,-1006 -149,-3048 -66,-4906 61,-1359 1131,-2497 2072,-3038 1368,-786 3379,55 4544,-296 2397,-721 1262,-441 4222,168 1750,360 2377,242 3534,366 4773,514 10575,82 15405,-642 814,-122 1559,121 2253,195 2572,277 4352,347 6931,-148 1641,-315 1784,134 3399,-1657l261 66 24 284c-497,245 -514,211 -823,672 781,0 1036,86 1614,134l0 269c-1299,0 -1515,-365 -2638,320l-1799 1294c1733,0 1991,458 2588,510 959,83 956,-899 1580,-1317 -55,660 -394,1291 -910,1514 -681,293 -229,-124 -1763,229l-151 -533c-1388,0 -1449,-14 -1613,-403 -37,-82 -342,85 171,-347 279,-235 878,-460 1173,-863 -595,0 -1066,153 -1515,232 -4638,817 -5377,-48 -7489,-103 -1712,-44 -2244,140 -3097,140 588,1111 779,443 1975,982 936,422 1377,489 1117,1572 -923,216 -1647,-107 -2151,135 241,902 857,409 941,1357 47,523 -410,1249 -659,1480 -389,363 -1019,376 -1303,849 -268,446 -189,1340 -189,2011 -503,634 -215,1096 -1162,1345 -1911,502 -1802,-661 -3273,1838 -313,533 -997,1072 -974,1461 -892,-376 -1338,-1340 -2928,-1965 -31,24 -77,20 -93,71 -150,470 147,-49 -437,304 -271,164 -266,165 -527,258l93 -155c454,-487 213,-74 516,-601l-297 -113 -661 -299 -365 951c-190,171 -169,193 -283,517l-138 -134 -74 -31c208,-82 16,-59 -62,-120 171,-638 -26,8 283,-450 26,-39 104,-103 152,-265 121,-405 32,-106 34,-398l-433 -768c-460,-646 -2613,910 -2818,1186 -211,-21 -159,-63 -124,155 -623,204 -722,529 -867,1146 505,312 370,12 579,442l-974 -470c211,-970 1122,-1484 1849,-2005 1903,-1361 1931,-687 2671,-1008 181,-566 217,-623 115,-1225 -977,-211 -1430,389 -2162,682l347 -598c-1098,-480 -1677,-253 -2644,251l-234 116 34 -168c766,-490 1033,-672 2217,-672 -178,-155 -43,-61 -315,-222l-1029 -585c0,-1093 -83,-1048 378,-1773 1088,-1717 -370,-1704 -198,-2874 322,-2193 925,-1495 -2584,-2093 -849,-145 -1572,-356 -2422,-537 -1438,-307 -1300,62 -2296,426 -333,122 -1704,-144 -2562,-145 -1780,-3 -3093,841 -3605,2448 -229,719 -209,1869 -80,2723 141,928 57,1971 57,2934 -593,974 -496,4063 -685,5376 -69,648 -428,1349 -302,1969 133,-339 292,-872 406,-1293l-57 2651c569,-250 617,-383 630,-1337 7,-506 22,-1267 -110,-1615 -512,-2839 162,-3065 240,-5515 45,-1294 94,-4782 588,-5744 409,-795 2555,-2324 3862,-2324 -27,19 -68,39 -86,49 -19,9 -63,36 -87,48l-479 193c-1551,591 -2710,1782 -2710,3610 1703,817 1713,-426 2393,-1373 754,-1051 2243,-508 2530,484 211,730 -201,1359 275,1876 346,376 1054,438 1337,814 221,295 134,450 268,808 368,983 1422,300 1358,1693 -462,1155 -1428,529 -2111,1480 -742,1032 224,2044 -1218,2411 -2442,621 -211,2476 -4951,2449 -408,1247 -1019,1685 -1578,2453 -1081,1484 -619,5379 -621,7343 -1,1488 -33,2550 155,4010 879,196 754,276 1481,-130 64,-1053 -453,-1087 -518,-1998 -48,-686 63,-1839 103,-2552 201,-3639 952,-3195 2759,-5331 1070,-1264 1294,-2737 3004,-3715l239 -165c549,-432 -216,-217 632,-389 -25,27 -59,35 -70,86 -12,50 -54,67 -69,85l-565 533c-235,177 -562,391 -788,567 -355,277 -871,1003 -1198,1493 -567,850 -726,1705 463,2474 729,472 -86,-60 410,-167 396,733 50,1087 717,1453 652,-630 -5,-955 673,-1482l-108 751c909,242 1618,150 2528,-6l275 -675c143,1483 71,1154 498,1232l18 148 -374 168c-572,440 -569,94 -859,786 155,249 -35,84 273,314 433,321 1043,274 1403,-152 407,-482 637,-1050 1453,-1185l183 43 -663 646c-330,522 270,1003 550,1997 222,789 9,847 675,860 485,329 1710,180 2387,212 -359,-903 -1061,-647 -2619,-1220l530 -94c-220,-203 -451,-377 -799,-461 -322,-816 -163,-17 39,-753 97,-354 -71,-87 123,-349 1095,-49 1174,184 2005,321 -331,-56 -257,-133 -257,189 -270,-273 -1034,-447 -1477,-244l-132 256c320,208 320,296 576,513 275,233 438,291 686,530 25,-64 15,-73 35,-197l21 -156c4,-17 20,-66 24,-81 4,-14 18,-55 30,-82 230,414 535,759 973,1179 208,199 317,341 552,528 335,266 211,104 572,502 683,749 1402,1183 2765,1527 1668,421 5749,2297 6940,382 409,-158 672,-607 760,-1161l202 -1980c205,-2550 -685,-4546 -1623,-6726l-1317 -2883c1090,784 1334,3099 2245,4272 1010,-323 1778,-954 2481,-1325 -133,-1289 -38,-2551 -73,-3842 101,114 78,9 172,242 288,710 -178,1706 34,3081 158,1023 565,1942 763,2998 301,1611 126,5633 15,7274 393,476 498,254 709,741 209,482 -23,738 436,985 -269,1084 1443,2191 2595,1508 159,-502 -511,-1251 -873,-1559 -229,31 -119,-28 -276,93l-91 -210 -577 -956c387,107 -7,-52 280,123 647,395 256,602 1008,680 239,24 253,15 538,49 829,101 1881,228 2675,294l0 269c-693,0 -768,75 -1395,63 -674,-12 -400,206 -1294,206 283,386 231,281 930,280l3238 123c2069,-25 884,205 2012,275 414,25 742,-27 1178,31 322,43 443,98 978,98 -316,433 -742,269 -1479,269 367,318 510,269 1076,269 -310,423 -219,247 -936,283 -1355,70 -1786,-83 -3000,83 -1368,188 -3429,-279 -3728,844l-269 0c-111,-275 7,-151 -429,-378l-7102 -161c-775,60 -769,244 -806,270l3900 269 -2284 406c-913,99 -428,401 -2019,401l0 134c921,0 843,124 1210,673 -730,60 -1220,133 -2157,129 -1120,-6 -673,144 -1985,301l-3238 257c-473,69 -362,166 -838,239 -40,7 -86,11 -136,15zm-4958 -2824c268,-507 26,-427 714,-341 501,63 770,72 1303,72 -336,293 -228,251 -798,278 -370,17 -836,-9 -1219,-9zm-11741 -2479c729,-70 591,-191 1016,-651 290,654 714,767 988,1674l-1861 190c-663,-64 -609,-13 -865,-399 -189,-285 -290,-536 -352,-905 469,67 802,211 1074,91zm12144 -210c143,-533 396,-543 538,-1076 321,235 433,490 538,941 -462,0 -753,10 -1076,135zm4303 -1210c2071,0 3950,806 5513,806l0 135c-627,0 -772,134 -1748,134 -1308,0 -2074,-134 -3361,-134 -71,-134 -153,-280 -227,-446 -83,-188 -136,-405 -177,-495zm10798 -481c915,227 1033,89 1866,194 255,319 441,588 349,1198 -1651,80 -1866,278 -2215,-1392zm-14966 750c13,-579 -30,-464 269,-807 -30,361 -75,617 -269,807zm9088 2228c499,-308 792,-164 1441,-705 75,-998 -252,-1015 -1175,-1193l-4387 -733c-540,-66 -1448,1 -1163,-1172 562,-36 3405,980 4195,1225 2381,736 2310,733 4640,113 936,920 1759,2721 -419,2782 -170,803 -316,968 -1101,1200 -598,177 -1316,171 -1884,-59 -690,-279 -699,-1117 -147,-1458zm7182 -6128l134 0c0,853 135,1123 135,2017 -402,-578 -269,-1053 -269,-2017zm-16900 711l2513 268c133,6 312,8 436,11 1578,47 1038,2384 2841,5286 425,685 945,2102 987,2964 -369,326 -971,554 -1582,624 -1358,156 -342,-539 -1909,-230 -1934,380 -2287,99 -3820,-400 -86,-2239 2144,-880 3809,-1973 -361,-472 -3214,-6114 -3275,-6550zm-2194 -2049l404 -48c500,-264 36,81 377,-385 295,-405 30,-222 429,-515 17,754 387,1099 538,1748 -632,0 -906,68 -1366,-134l68 145 223 179c650,99 1708,33 1246,954 -809,-51 -1726,104 -2591,99 -912,-5 -1644,-98 -2496,-181 -472,-117 -551,-23 -907,-423 621,-176 3286,-779 3952,-303l-11 -396c-416,-145 -2749,83 -3227,195 -380,-718 -469,-1276 -673,-2152 595,-285 627,-34 807,-806 609,13 639,169 1340,140 606,-25 627,-140 1349,-140 -79,953 -727,525 -806,1479 272,372 954,693 1344,544zm-6811 -2830l-87 -451c359,-239 414,-282 647,-650l510 529c943,1291 1124,632 1361,1453 163,564 63,1080 211,1667 109,431 313,885 478,1257 -482,478 -721,45 -628,1009 30,308 183,1077 244,1369 -567,-214 -397,-720 -606,-1509 -236,-898 -1202,-3527 -1907,-4318 117,590 622,1432 885,2120l786 2307c87,433 72,923 225,1253 232,501 463,338 668,946 203,605 222,1961 394,2699 -629,0 -1257,0 -1886,-3 -860,-4 -1103,138 -1879,138 -181,-676 -1201,-1406 -1525,-2375 -284,-850 -89,-2909 -89,-3945 349,126 295,285 672,538 -111,-479 -306,-2113 -186,-2466 240,-701 1001,-1113 1397,-1703l315 135zm22947 -1076c329,-174 1035,-501 1479,-538 0,3686 847,2464 -388,6891 -287,1027 92,379 237,1326l285 1599c-493,236 -736,269 -1479,269 -181,-678 -357,-263 -538,-941 434,-116 548,-348 757,-722 493,-882 453,-3351 453,-4522 0,-715 -177,-1073 -346,-1671l-460 -1691zm2955 7273c216,682 93,423 61,1106 -1083,71 -1034,79 -1363,-759 -242,-618 -505,-519 -331,-1292 274,-1211 658,-1795 658,-3235 100,-1011 -255,-2848 -385,-3936 363,-178 435,-320 824,-474 1864,5253 -239,6134 536,8590zm-27831 -20450c0,2053 280,3568 503,5279 94,724 31,4352 -772,4940 0,-1333 -196,-1362 -458,-2366 -302,-1158 486,-4586 584,-7190l143 -663zm0 0c0,-978 -104,-3181 1076,-3496 -1192,1780 -758,2995 -1076,3496z"/>
    <path class="fil19" d="M53421 10167c-452,512 -889,979 -1784,898 -1041,-95 -2435,-1874 139,-2183 925,-111 1115,-266 1597,330l-250 200c333,504 -81,265 491,308 -48,812 27,223 -193,447zm230 -626l0 576c-201,721 -1160,1241 -2416,1169 -821,-47 -1189,44 -2022,-259 -2394,-871 -3520,-35 -4571,-539 -112,1342 -1458,2118 -2307,2803 -2446,1970 -2044,5484 -6082,6692 -794,238 -1277,186 -2234,186 -74,886 -131,1610 -130,2694 2,1719 -905,2689 -702,4716 71,706 94,2213 96,2739 -1074,-1451 -117,-4748 255,-6451 412,-1886 -229,-2876 703,-5092l673 -1100c-49,372 -722,1534 -899,2386 1127,-84 2063,-181 3027,-630 759,-352 1735,-1039 1927,-1639 -1270,-87 -1102,1122 -2175,563 -336,-175 -532,-629 -496,-1000 124,-1252 910,387 266,-2405 -220,-958 -984,-1383 -1308,-2203 -243,-616 -103,-906 -296,-1351 432,-696 665,-1351 1754,-1452 1658,-155 1094,801 2146,1082 561,-376 455,-492 835,-913 872,-966 2072,412 2930,1316l139 135 241 815c371,-169 159,-20 488,-353 245,-247 190,-169 343,-462l159 -135 11 -269c-219,-2078 -602,-1517 -843,-2554 1298,869 189,1763 3226,1748 3523,-17 2558,672 4303,672 -1083,-1618 -1144,-2168 1883,-2420 -255,-531 -176,-483 -533,-946 -239,-310 -385,-409 -639,-706 -1631,-1912 -1073,-3015 -1579,-4069 -364,-761 -935,-929 -1283,-1601 477,-135 251,-103 391,-260 337,-265 376,-154 365,-701l-594 357 -162 -14c255,-368 386,-620 941,-666 0,1267 93,738 -430,1505l834 915c256,-123 718,-239 1075,-269 -143,356 277,251 -537,269l350 188c281,211 33,-168 187,216l-806 0c74,320 141,676 269,941 641,-14 770,-191 1232,-381 1081,-446 820,-421 919,-695 -962,-461 -1824,-807 -2958,-807 268,-365 229,-339 857,-206 605,129 2086,625 2370,1013 -212,796 -1764,1330 -2420,1345 38,1712 926,2520 1780,3463 456,504 378,723 857,1160 325,296 514,596 590,884z"/>
    <path class="fil19" d="M46793 4584c17,28 52,36 52,81l-52 362c-390,-250 -539,-211 0,-443zm-672 122c750,1120 1236,523 1748,404 -212,-909 226,-942 -1210,-942 -150,562 -61,286 -538,538z"/>
    <path class="fil19" d="M43835 3227l262 -155 -262 155zm0 0l-146 262c496,-4 555,-79 824,-256 427,-282 407,-198 532,-544 -717,0 -1035,87 -1527,355 -275,150 -305,188 -575,367 -457,304 -318,115 -453,488 698,-162 729,-507 1345,-672z"/>
    <path class="fil19" d="M45313 538l0 107 196 95c205,30 -80,96 157,-8 24,-11 150,-81 186,-108 1078,-66 1370,-107 2297,317l144 -269c-351,-154 -1006,-403 -1500,-414 -792,-18 -846,257 -1480,280z"/>
   </g>
   <path class="fil20" d="M20523 22222c147,-605 253,-652 857,-649 250,293 224,367 517,706l-1374 -57zm1029 -1784c-106,93 -105,321 -496,754 -19,21 -49,48 -68,69l-129 139c-1088,1180 -1238,586 -1982,886 493,445 1193,334 1911,758l-725 11 2551 1279 774 -65 -151 -327c-701,-163 -1566,-304 -2076,-814l1636 81 -398 -514c-20,-27 -50,-72 -78,-105 -791,8 -1662,345 -2269,-85l1974 -59 -35 -464c-158,-440 -273,-512 -412,-943 527,-703 961,-1658 688,-2591l-266 1636c-387,673 16,215 -449,354z"/>
   <path class="fil21" d="M51969 10017c-590,543 -1447,234 -843,-552 614,-70 887,70 843,552zm1452 150c-23,-19 -60,-43 -75,-50 -14,-6 -57,-35 -75,-42l-415 -125c48,-627 -102,-297 267,-538l250 -200c-482,-596 -672,-441 -1597,-330 -2574,309 -1180,2088 -139,2183 895,81 1332,-386 1784,-898z"/>
   <path class="fil22" d="M2437 16810c-477,-118 -145,2 -567,-375 -69,648 -428,1349 -302,1969 133,-339 292,-872 406,-1293l-57 2651c569,-250 617,-383 630,-1337 7,-506 22,-1267 -110,-1615z"/>
   <path class="fil23" d="M1870 16435c422,377 90,257 567,375 -512,-2839 162,-3065 240,-5515l-122 -236c-593,974 -496,4063 -685,5376z"/>
   <path class="fil24" d="M14271 31274c220,-306 -62,371 171,-280 223,-622 386,-2152 -338,-2847 -45,1200 11,1950 167,3127z"/>
   <path class="fil25" d="M19841 19555c-426,633 -133,135 34,334 637,50 713,24 745,-576 1811,397 -333,-527 1032,29l-28 -149 -62 -435c-695,-18 -1019,166 -1721,797z"/>
   <path class="fil26" d="M13492 21199l22 79 529 198 5 -913c223,260 80,-244 227,542 216,1163 62,378 426,1381l268 -10c-88,-465 33,-99 -156,-507 -191,-152 -99,196 -350,-415 -74,-178 -33,-165 -41,-348 6,-34 66,-532 75,-563 10,-31 20,-68 31,-96l236 -283 -824 159c-244,635 -160,300 -448,776z"/>
   <path class="fil27" d="M17273 23200c484,-4 1297,-443 1421,-908 -461,-133 -379,13 -793,315 -508,371 -519,40 -628,593z"/>
   <path class="fil28" d="M15733 20454l-55 149 86 -7 1322 83 362 -10 86 -8 1063 -202c-420,-326 -941,201 -2864,-5z"/>
   <path class="fil29" d="M53421 10167c220,-224 145,365 193,-447 -572,-43 -158,196 -491,-308 -369,241 -219,-89 -267,538l415 125c18,7 61,36 75,42 15,7 52,31 75,50z"/>
   <path class="fil30" d="M21451 26540c593,204 373,-74 966,335l-78 -444c-1254,-224 22,-267 -1217,-682 440,449 916,807 329,791z"/>
   <path class="fil31" d="M51116 9816c50,86 -88,248 249,230 358,-20 182,-112 252,-230 -355,-270 -120,-291 -501,0z"/>
   <path class="fil32" d="M24606 26701l-88 249 312 -192c-106,-355 -274,-444 -617,-615 116,183 297,458 393,558z"/>
   <polygon class="fil33" points="12086,23787 11712,23955 12033,24443 "/>
   <path class="fil34" d="M46845 4665c0,-45 -35,-53 -52,-81 -539,232 -390,193 0,443l52 -362z"/>
   <path class="fil35" d="M34914 17675c299,-137 293,439 386,-516 -187,237 -169,93 -386,516z"/>
   <path class="fil36" d="M15595 20841l328 -25 -159 -220 -86 7c-188,122 -176,-149 -83,238z"/>
   <path class="fil37" d="M10746 30673l-568 -483c171,259 64,243 568,483z"/>
  </g>
  <g id="_1288701131840">
   <path class="fil38" d="M10826 44363l-1275 0c-185,0 -316,-41 -395,-124 -78,-82 -118,-214 -118,-394l0 -3136c0,-184 41,-316 121,-396 81,-81 211,-122 392,-122l1351 0c199,0 372,13 518,37 146,26 277,72 393,143 99,58 185,133 262,223 76,91 133,190 173,298 40,110 60,225 60,346 0,418 -209,723 -626,917 549,174 822,513 822,1018 0,233 -60,444 -179,630 -120,188 -281,326 -484,414 -127,53 -273,91 -438,113 -165,22 -358,33 -577,33zm-64 -1853l-879 0 0 1218 908 0c571,0 857,-206 857,-618 0,-211 -74,-363 -222,-458 -148,-94 -369,-142 -664,-142zm-879 -1684l0 1078 775 0c210,0 372,-20 487,-60 116,-40 203,-116 264,-227 48,-80 71,-169 71,-267 0,-211 -75,-351 -225,-420 -150,-69 -379,-104 -686,-104l-686 0z"/>
   <path id="1" class="fil38" d="M13956 41716l0 2245c0,155 -37,273 -111,352 -74,80 -167,120 -280,120 -114,0 -206,-41 -277,-123 -71,-81 -107,-198 -107,-349l0 -2222c0,-154 36,-270 107,-347 71,-78 163,-117 277,-117 113,0 206,39 280,117 74,77 111,186 111,324zm-384 -802c-107,0 -200,-33 -276,-99 -77,-66 -115,-160 -115,-282 0,-109 39,-199 118,-270 78,-71 170,-107 273,-107 101,0 190,32 267,97 78,65 117,158 117,280 0,120 -38,213 -114,280 -75,67 -165,101 -270,101z"/>
   <path id="2" class="fil38" d="M16926 43046l-1519 0c2,177 37,332 106,467 69,135 162,236 276,304 115,69 242,103 380,103 93,0 178,-11 254,-33 78,-21 152,-55 224,-102 72,-47 138,-96 199,-150 61,-53 139,-125 236,-216 40,-34 97,-52 170,-52 80,0 145,23 195,66 48,43 73,105 73,185 0,70 -28,151 -82,246 -55,93 -138,183 -250,269 -110,86 -249,158 -417,214 -168,57 -361,86 -579,86 -499,0 -886,-143 -1163,-428 -277,-284 -415,-670 -415,-1157 0,-229 34,-443 102,-639 68,-196 168,-364 298,-505 131,-140 293,-247 484,-322 191,-75 404,-113 637,-113 304,0 564,64 780,192 218,129 380,294 489,498 108,202 162,409 162,620 0,195 -56,322 -168,381 -112,57 -269,86 -472,86zm-1519 -443l1407 0c-18,-265 -90,-463 -214,-595 -124,-131 -287,-197 -490,-197 -195,0 -353,67 -477,200 -124,134 -200,331 -226,592z"/>
   <path id="3" class="fil38" d="M18924 41704l0 94c137,-180 287,-312 449,-397 162,-84 349,-126 559,-126 205,0 388,45 550,134 161,88 281,215 361,378 52,95 85,197 100,308 15,109 22,249 22,420l0 1446c0,155 -35,273 -106,352 -71,80 -164,120 -278,120 -116,0 -210,-41 -283,-123 -71,-81 -107,-198 -107,-349l0 -1296c0,-255 -36,-451 -107,-587 -71,-135 -213,-203 -425,-203 -138,0 -265,41 -379,123 -114,83 -197,196 -250,341 -38,116 -57,331 -57,649l0 973c0,157 -37,274 -110,353 -73,79 -167,119 -281,119 -112,0 -204,-41 -276,-123 -72,-81 -108,-198 -108,-349l0 -2245c0,-148 32,-258 96,-331 65,-73 153,-110 264,-110 68,0 131,16 185,49 55,32 99,80 132,144 33,64 49,144 49,236z"/>
   <path id="4" class="fil38" d="M22212 41759l628 1765 677 -1842c54,-148 105,-253 157,-315 51,-61 129,-92 233,-92 99,0 182,33 251,100 69,66 104,143 104,230 0,34 -6,74 -19,120 -12,45 -26,88 -42,128 -17,40 -35,85 -56,136l-744 1849c-22,53 -48,121 -82,202 -33,82 -70,151 -111,209 -40,58 -91,103 -150,135 -60,32 -132,49 -218,49 -109,0 -197,-26 -263,-76 -65,-50 -113,-105 -144,-165 -31,-59 -85,-178 -159,-354l-739 -1829c-17,-46 -35,-91 -52,-137 -18,-45 -33,-91 -46,-139 -12,-47 -18,-88 -18,-122 0,-53 16,-106 48,-158 32,-53 77,-95 134,-128 57,-34 118,-50 185,-50 128,0 217,37 266,111 48,74 101,199 160,373z"/>
   <path id="5" class="fil38" d="M26911 43046l-1520 0c2,177 38,332 107,467 69,135 161,236 276,304 114,69 242,103 379,103 94,0 178,-11 255,-33 77,-21 151,-55 223,-102 73,-47 139,-96 199,-150 61,-53 140,-125 237,-216 40,-34 96,-52 170,-52 80,0 145,23 194,66 49,43 74,105 74,185 0,70 -28,151 -83,246 -55,93 -137,183 -249,269 -111,86 -250,158 -418,214 -168,57 -361,86 -578,86 -499,0 -887,-143 -1164,-428 -276,-284 -414,-670 -414,-1157 0,-229 34,-443 102,-639 68,-196 168,-364 298,-505 131,-140 292,-247 483,-322 192,-75 404,-113 637,-113 304,0 565,64 781,192 218,129 380,294 488,498 108,202 163,409 163,620 0,195 -57,322 -168,381 -112,57 -269,86 -472,86zm-1520 -443l1408 0c-18,-265 -90,-463 -214,-595 -125,-131 -288,-197 -491,-197 -194,0 -352,67 -477,200 -124,134 -200,331 -226,592z"/>
   <path id="6" class="fil38" d="M28909 41704l0 94c137,-180 286,-312 449,-397 162,-84 348,-126 559,-126 205,0 387,45 549,134 162,88 282,215 362,378 51,95 84,197 100,308 14,109 22,249 22,420l0 1446c0,155 -36,273 -107,352 -71,80 -164,120 -278,120 -115,0 -209,-41 -282,-123 -72,-81 -108,-198 -108,-349l0 -1296c0,-255 -36,-451 -107,-587 -71,-135 -212,-203 -425,-203 -138,0 -264,41 -379,123 -113,83 -197,196 -249,341 -38,116 -57,331 -57,649l0 973c0,157 -37,274 -110,353 -73,79 -167,119 -282,119 -111,0 -204,-41 -275,-123 -72,-81 -108,-198 -108,-349l0 -2245c0,-148 32,-258 96,-331 65,-73 152,-110 264,-110 68,0 130,16 184,49 56,32 100,80 133,144 33,64 49,144 49,236z"/>
   <path id="7" class="fil38" d="M32500 41716l0 2245c0,155 -37,273 -111,352 -74,80 -167,120 -281,120 -113,0 -205,-41 -276,-123 -71,-81 -107,-198 -107,-349l0 -2222c0,-154 36,-270 107,-347 71,-78 163,-117 276,-117 114,0 207,39 281,117 74,77 111,186 111,324zm-384 -802c-108,0 -200,-33 -277,-99 -76,-66 -114,-160 -114,-282 0,-109 39,-199 117,-270 79,-71 170,-107 274,-107 101,0 190,32 267,97 78,65 117,158 117,280 0,120 -38,213 -114,280 -76,67 -165,101 -270,101z"/>
   <path id="8" class="fil38" d="M35430 43989l0 -77c-104,120 -207,217 -309,291 -101,75 -211,133 -330,171 -118,39 -247,59 -388,59 -186,0 -357,-40 -516,-119 -158,-79 -296,-190 -411,-337 -116,-145 -203,-317 -264,-514 -59,-198 -89,-411 -89,-640 0,-486 119,-864 355,-1135 237,-271 550,-407 936,-407 225,0 413,39 567,115 153,77 303,196 449,356l0 -1147c0,-159 32,-280 95,-361 64,-82 155,-123 272,-123 118,0 208,38 272,113 63,75 95,186 95,331l0 3424c0,147 -34,259 -102,333 -69,74 -157,111 -265,111 -106,0 -194,-39 -263,-116 -69,-77 -104,-186 -104,-328zm-1526 -1140c0,211 33,389 98,538 65,147 154,258 269,333 113,75 238,113 372,113 137,0 261,-36 373,-107 113,-71 203,-180 270,-327 67,-147 101,-330 101,-550 0,-206 -34,-384 -101,-532 -67,-150 -158,-263 -272,-342 -115,-79 -240,-117 -377,-117 -142,0 -269,39 -381,120 -111,81 -198,196 -260,347 -61,151 -92,326 -92,524z"/>
   <path id="9" class="fil38" d="M39852 42855c0,232 -36,444 -108,640 -73,195 -177,363 -313,503 -136,140 -300,247 -490,322 -189,75 -403,113 -640,113 -236,0 -447,-38 -635,-114 -187,-76 -350,-185 -488,-326 -137,-141 -242,-308 -313,-500 -71,-194 -107,-406 -107,-639 0,-235 36,-451 108,-646 73,-195 176,-362 311,-501 135,-138 298,-245 489,-319 192,-75 403,-113 635,-113 235,0 449,38 640,114 191,75 356,184 492,325 137,140 241,307 312,501 71,193 107,407 107,640zm-781 0c0,-317 -70,-562 -208,-739 -140,-176 -327,-264 -562,-264 -152,0 -285,39 -401,117 -115,79 -205,195 -267,349 -63,153 -94,333 -94,537 0,203 31,380 92,532 62,151 150,268 264,348 115,81 251,121 406,121 235,0 422,-89 562,-266 138,-177 208,-423 208,-735z"/>
   <path id="10" class="fil38" d="M43882 43997c-188,145 -369,254 -544,327 -176,73 -373,109 -591,109 -199,0 -374,-40 -525,-119 -150,-79 -267,-184 -348,-319 -82,-135 -123,-281 -123,-438 0,-213 67,-393 202,-543 135,-151 321,-251 556,-302 49,-12 171,-37 367,-77 195,-39 363,-75 502,-109 138,-33 290,-73 453,-121 -10,-205 -50,-355 -123,-450 -74,-96 -225,-144 -455,-144 -197,0 -345,27 -444,82 -100,55 -186,137 -257,248 -71,110 -121,182 -150,218 -30,35 -94,52 -190,52 -87,0 -163,-28 -226,-84 -63,-56 -95,-128 -95,-215 0,-137 49,-270 145,-399 97,-129 247,-235 452,-319 205,-83 460,-125 766,-125 341,0 610,41 805,122 195,80 333,207 414,382 80,175 121,406 121,694 0,183 -1,337 -2,464 -1,128 -2,269 -4,425 0,145 25,298 73,456 49,157 72,259 72,305 0,80 -37,152 -112,218 -75,65 -160,98 -255,98 -80,0 -158,-37 -236,-112 -78,-75 -160,-183 -248,-324zm-51 -1126c-114,42 -279,87 -496,132 -217,47 -367,82 -451,103 -83,23 -163,65 -239,128 -75,65 -113,153 -113,267 0,118 44,218 134,300 88,83 205,125 349,125 154,0 296,-34 425,-101 130,-68 225,-155 286,-261 70,-118 105,-312 105,-582l0 -111z"/>
   <path class="fil38" d="M6073 49944c0,160 -35,332 -108,518 -72,186 -186,368 -342,547 -155,180 -354,325 -595,437 -242,111 -523,167 -845,167 -243,0 -464,-25 -664,-75 -199,-50 -381,-128 -543,-235 -162,-105 -313,-245 -449,-418 -122,-158 -226,-333 -312,-528 -86,-195 -151,-404 -194,-625 -43,-222 -64,-457 -64,-705 0,-403 54,-766 162,-1085 108,-320 264,-593 465,-820 202,-226 437,-399 708,-518 271,-118 560,-178 867,-178 374,0 706,81 998,243 292,161 515,362 671,601 155,238 234,462 234,675 0,117 -39,218 -114,308 -76,89 -167,133 -275,133 -119,0 -209,-31 -268,-92 -61,-62 -127,-168 -200,-319 -123,-249 -266,-434 -430,-558 -166,-123 -368,-185 -610,-185 -385,0 -690,159 -918,476 -228,317 -342,768 -342,1352 0,391 51,715 152,975 100,259 243,452 428,580 184,128 401,192 649,192 269,0 496,-73 682,-217 186,-145 325,-358 420,-639 40,-132 89,-240 148,-324 58,-83 153,-125 283,-125 112,0 207,42 287,127 80,84 119,190 119,315z"/>
   <path id="1" class="fil38" d="M10073 49715c0,279 -40,535 -120,769 -80,235 -195,437 -347,606 -150,169 -332,297 -542,387 -209,90 -446,136 -708,136 -261,0 -496,-46 -703,-137 -208,-91 -388,-222 -541,-392 -152,-170 -268,-371 -346,-602 -79,-232 -119,-488 -119,-769 0,-282 40,-542 120,-776 80,-235 194,-436 344,-603 149,-166 330,-295 542,-385 212,-89 446,-135 703,-135 260,0 496,46 708,137 212,91 394,222 545,391 152,168 267,369 345,603 79,232 119,489 119,770zm-865 0c0,-381 -77,-677 -231,-889 -155,-212 -361,-318 -621,-318 -169,0 -316,47 -444,141 -128,95 -227,235 -296,420 -70,184 -104,400 -104,646 0,244 34,457 102,640 69,182 166,322 292,419 127,97 278,145 450,145 260,0 466,-106 621,-320 154,-213 231,-508 231,-884z"/>
   <path id="2" class="fil38" d="M11528 48330l0 114c152,-218 318,-377 497,-478 180,-102 386,-152 619,-152 227,0 429,54 609,161 178,106 312,258 400,455 57,114 93,237 111,370 16,132 24,300 24,506l0 1739c0,187 -40,328 -118,424 -79,96 -182,144 -308,144 -127,0 -232,-49 -312,-147 -80,-98 -120,-239 -120,-421l0 -1558c0,-307 -39,-543 -118,-707 -78,-162 -235,-244 -471,-244 -152,0 -292,49 -419,148 -126,100 -218,236 -276,410 -42,139 -64,399 -64,781l0 1170c0,189 -41,331 -121,425 -81,95 -185,143 -312,143 -124,0 -226,-49 -305,-147 -80,-98 -120,-239 -120,-421l0 -2701c0,-177 36,-310 107,-398 72,-88 168,-132 292,-132 75,0 144,20 204,58 62,39 110,97 147,174 36,78 54,173 54,284z"/>
   <path id="3" class="fil38" d="M14693 47898l95 0 0 -562c0,-151 3,-268 11,-354 7,-86 28,-160 61,-221 33,-64 82,-116 145,-156 63,-40 132,-60 211,-60 109,0 206,45 295,134 59,59 95,132 111,218 16,85 24,207 24,364l0 637 315 0c121,0 215,32 278,94 65,63 97,143 97,240 0,126 -46,214 -137,264 -92,50 -222,75 -393,75l-160 0 0 1717c0,146 4,259 14,338 10,78 34,142 75,191 42,49 109,74 201,74 50,0 119,-9 205,-29 86,-19 153,-29 201,-29 69,0 132,30 188,91 56,60 83,135 83,224 0,151 -76,265 -226,345 -152,80 -369,120 -653,120 -269,0 -472,-49 -609,-147 -139,-98 -229,-234 -272,-408 -43,-173 -65,-404 -65,-694l0 -1793 -113 0c-124,0 -219,-32 -284,-96 -65,-63 -97,-145 -97,-243 0,-97 34,-177 102,-240 68,-62 167,-94 297,-94z"/>
   <path id="4" class="fil38" d="M17781 50265l0 780c0,189 -41,331 -122,425 -82,95 -185,143 -311,143 -124,0 -226,-48 -305,-144 -80,-96 -120,-237 -120,-424l0 -2601c0,-420 140,-630 418,-630 142,0 246,49 308,147 63,98 98,244 104,436 102,-192 208,-338 316,-436 109,-98 253,-147 434,-147 180,0 355,49 525,147 170,98 255,229 255,392 0,114 -35,207 -109,282 -72,75 -150,111 -234,111 -31,0 -107,-21 -228,-63 -121,-42 -228,-63 -320,-63 -126,0 -228,36 -309,107 -79,73 -142,179 -186,321 -44,141 -74,309 -91,504 -16,195 -25,432 -25,713z"/>
   <path id="5" class="fil38" d="M22728 49715c0,279 -40,535 -120,769 -80,235 -195,437 -347,606 -150,169 -332,297 -542,387 -209,90 -446,136 -708,136 -262,0 -496,-46 -703,-137 -208,-91 -389,-222 -541,-392 -152,-170 -268,-371 -346,-602 -79,-232 -119,-488 -119,-769 0,-282 40,-542 120,-776 80,-235 194,-436 344,-603 149,-166 330,-295 542,-385 211,-89 446,-135 703,-135 260,0 496,46 708,137 212,91 394,222 545,391 152,168 267,369 345,603 79,232 119,489 119,770zm-865 0c0,-381 -77,-677 -231,-889 -155,-212 -361,-318 -621,-318 -169,0 -316,47 -444,141 -128,95 -227,235 -296,420 -70,184 -104,400 -104,646 0,244 34,457 102,640 69,182 165,322 292,419 127,97 278,145 450,145 260,0 466,-106 621,-320 154,-213 231,-508 231,-884z"/>
   <path id="6" class="fil38" d="M23405 51045l0 -4051c0,-187 39,-328 115,-424 76,-96 180,-144 310,-144 129,0 234,48 314,143 79,94 119,236 119,425l0 4051c0,189 -41,331 -122,425 -80,95 -185,143 -311,143 -126,0 -228,-49 -307,-147 -78,-98 -118,-239 -118,-421z"/>
   <path id="7" class="fil38" d="M27740 47042l0 3653 1896 0c151,0 267,39 347,119 82,80 122,181 122,301 0,123 -40,223 -119,299 -80,76 -197,115 -350,115l-2259 0c-203,0 -349,-49 -438,-147 -89,-99 -135,-257 -135,-476l0 -3864c0,-205 43,-359 128,-462 85,-102 197,-154 336,-154 140,0 253,50 341,152 87,102 131,257 131,464z"/>
   <path id="8" class="fil38" d="M33060 49945l-1682 0c2,212 42,399 118,562 76,162 179,283 305,365 127,83 268,124 421,124 103,0 197,-13 281,-40 86,-25 168,-66 248,-122 80,-56 153,-116 220,-180 68,-64 155,-151 262,-261 45,-41 107,-62 189,-62 88,0 160,27 215,80 53,51 81,126 81,222 0,84 -31,182 -91,295 -61,112 -153,221 -276,324 -123,104 -277,190 -463,258 -186,69 -400,103 -640,103 -553,0 -982,-172 -1288,-514 -307,-342 -459,-806 -459,-1393 0,-275 37,-532 112,-768 76,-236 186,-438 330,-608 146,-168 324,-298 536,-388 212,-89 447,-135 705,-135 337,0 625,77 865,231 240,154 420,353 540,598 120,245 180,493 180,747 0,235 -63,388 -186,458 -124,69 -298,104 -523,104zm-1682 -533l1559 0c-21,-319 -100,-557 -238,-716 -137,-158 -318,-237 -543,-237 -215,0 -390,80 -528,240 -137,162 -221,399 -250,713z"/>
   <path id="9" class="fil38" d="M37579 50458c0,115 -32,240 -97,372 -63,132 -161,258 -292,378 -131,119 -297,216 -497,288 -199,74 -423,110 -674,110 -531,0 -946,-168 -1244,-505 -299,-336 -448,-787 -448,-1354 0,-383 69,-722 205,-1016 137,-294 335,-522 593,-682 259,-161 567,-242 926,-242 223,0 427,35 613,106 185,71 343,163 472,275 129,112 228,231 296,357 68,128 103,246 103,355 0,113 -39,207 -115,285 -78,78 -170,116 -280,116 -71,0 -130,-20 -177,-60 -47,-39 -100,-104 -159,-192 -106,-173 -215,-304 -329,-390 -115,-87 -260,-130 -437,-130 -253,0 -459,107 -614,323 -155,215 -233,510 -233,884 0,175 21,336 60,483 40,147 97,274 173,376 76,104 167,183 275,236 106,54 224,81 352,81 172,0 320,-43 442,-130 124,-86 232,-219 327,-397 52,-105 109,-187 170,-245 60,-60 135,-90 223,-90 106,0 193,44 262,131 69,86 104,178 104,277z"/>
   <path id="10" class="fil38" d="M39006 46994l0 1384c109,-136 216,-245 320,-325 103,-79 218,-140 344,-179 127,-40 262,-60 407,-60 219,0 412,50 582,151 169,100 301,246 398,438 61,111 102,236 124,375 20,138 31,296 31,476l0 1791c0,187 -40,328 -119,424 -78,96 -183,144 -314,144 -283,0 -425,-189 -425,-568l0 -1578c0,-299 -41,-529 -123,-689 -81,-162 -237,-242 -466,-242 -153,0 -292,48 -414,142 -123,95 -215,224 -276,388 -46,139 -69,387 -69,743l0 1236c0,185 -39,325 -115,422 -77,97 -183,146 -319,146 -282,0 -424,-189 -424,-568l0 -4051c0,-189 37,-331 111,-425 75,-95 179,-143 313,-143 136,0 242,48 319,144 76,96 115,237 115,424z"/>
   <path id="11" class="fil38" d="M44462 49945l-1683 0c2,212 42,399 118,562 77,162 179,283 306,365 127,83 267,124 420,124 103,0 197,-13 282,-40 86,-25 168,-66 247,-122 81,-56 154,-116 220,-180 68,-64 155,-151 263,-261 44,-41 106,-62 188,-62 88,0 160,27 215,80 54,51 82,126 82,222 0,84 -32,182 -92,295 -61,112 -152,221 -276,324 -123,104 -276,190 -462,258 -186,69 -400,103 -641,103 -553,0 -982,-172 -1288,-514 -306,-342 -459,-806 -459,-1393 0,-275 38,-532 113,-768 75,-236 186,-438 330,-608 145,-168 323,-298 535,-388 212,-89 448,-135 706,-135 336,0 624,77 864,231 241,154 420,353 541,598 119,245 179,493 179,747 0,235 -62,388 -186,458 -123,69 -298,104 -522,104zm-1683 -533l1559 0c-20,-319 -100,-557 -238,-716 -137,-158 -318,-237 -542,-237 -215,0 -391,80 -528,240 -138,162 -222,399 -251,713z"/>
   <path id="12" class="fil38" d="M46747 50265l0 780c0,189 -40,331 -122,425 -82,95 -185,143 -311,143 -124,0 -226,-48 -305,-144 -80,-96 -120,-237 -120,-424l0 -2601c0,-420 140,-630 419,-630 142,0 245,49 307,147 64,98 98,244 104,436 103,-192 208,-338 316,-436 109,-98 253,-147 434,-147 180,0 356,49 525,147 170,98 255,229 255,392 0,114 -35,207 -108,282 -72,75 -151,111 -235,111 -31,0 -107,-21 -228,-63 -121,-42 -227,-63 -320,-63 -126,0 -228,36 -309,107 -79,73 -141,179 -186,321 -44,141 -74,309 -91,504 -16,195 -25,432 -25,713z"/>
   <path id="13" class="fil38" d="M51694 49715c0,279 -40,535 -119,769 -81,235 -196,437 -348,606 -150,169 -332,297 -542,387 -209,90 -446,136 -708,136 -261,0 -496,-46 -703,-137 -208,-91 -388,-222 -541,-392 -151,-170 -268,-371 -346,-602 -79,-232 -118,-488 -118,-769 0,-282 39,-542 119,-776 81,-235 195,-436 344,-603 149,-166 330,-295 542,-385 212,-89 446,-135 703,-135 260,0 497,46 708,137 212,91 394,222 546,391 151,168 266,369 345,603 78,232 118,489 118,770zm-864 0c0,-381 -78,-677 -232,-889 -154,-212 -361,-318 -621,-318 -169,0 -316,47 -444,141 -128,95 -227,235 -296,420 -70,184 -104,400 -104,646 0,244 34,457 102,640 69,182 166,322 293,419 126,97 277,145 449,145 260,0 467,-106 621,-320 154,-213 232,-508 232,-884z"/>
  </g>
 </g>
</svg>
